<?xml version="1.0" encoding="UTF-8"?>
<svg xmlns="http://www.w3.org/2000/svg" xmlns:xlink="http://www.w3.org/1999/xlink" width="32px" height="32px" viewBox="0 0 32 32" version="1.1">
<g id="surface1">
<rect x="0" y="0" width="32" height="32" style="fill:rgb(14.901961%,14.901961%,14.901961%);fill-opacity:1;stroke:none;"/>
<path style=" stroke:none;fill-rule:nonzero;fill:rgb(53.72549%,17.254902%,86.27451%);fill-opacity:1;" d="M 4.082031 11.289062 L 10.210938 6.988281 L 10.210938 8.234375 L 5.53125 11.578125 L 10.210938 14.90625 L 10.210938 16.1875 L 4.082031 11.921875 Z M 4.082031 11.289062 "/>
<path style=" stroke:none;fill-rule:nonzero;fill:rgb(53.72549%,17.254902%,86.27451%);fill-opacity:1;" d="M 4.082031 11.289062 L 3.964844 11.0625 L 3.855469 11.140625 L 3.855469 11.289062 Z M 10.210938 6.988281 L 10.441406 6.988281 L 10.441406 6.515625 L 10.09375 6.761719 Z M 10.210938 8.234375 L 10.332031 8.460938 L 10.441406 8.382812 L 10.441406 8.234375 Z M 5.53125 11.578125 L 5.410156 11.351562 L 5.09375 11.582031 L 5.410156 11.808594 Z M 10.210938 14.90625 L 10.441406 14.90625 L 10.441406 14.757812 L 10.332031 14.679688 Z M 10.210938 16.1875 L 10.09375 16.417969 L 10.441406 16.65625 L 10.441406 16.1875 Z M 4.082031 11.921875 L 3.855469 11.921875 L 3.855469 12.074219 L 3.964844 12.148438 Z M 4.199219 11.519531 L 10.328125 7.21875 L 10.09375 6.761719 L 3.964844 11.0625 Z M 9.984375 6.988281 L 9.984375 8.234375 L 10.441406 8.234375 L 10.441406 6.988281 Z M 10.09375 8.007812 L 5.410156 11.351562 L 5.648438 11.808594 L 10.332031 8.460938 Z M 5.410156 11.808594 L 10.09375 15.136719 L 10.332031 14.679688 L 5.648438 11.351562 Z M 9.984375 14.90625 L 9.984375 16.1875 L 10.441406 16.1875 L 10.441406 14.90625 Z M 10.328125 15.957031 L 4.199219 11.691406 L 3.964844 12.148438 L 10.09375 16.417969 Z M 4.3125 11.921875 L 4.3125 11.289062 L 3.855469 11.289062 L 3.855469 11.921875 Z M 4.3125 11.921875 "/>
<path style=" stroke:none;fill-rule:nonzero;fill:rgb(53.72549%,17.254902%,86.27451%);fill-opacity:1;" d="M 27.90625 11.921875 L 21.777344 16.1875 L 21.777344 14.90625 L 26.457031 11.578125 L 21.777344 8.234375 L 21.777344 6.988281 L 27.90625 11.289062 Z M 27.90625 11.921875 "/>
<path style=" stroke:none;fill-rule:nonzero;fill:rgb(53.72549%,17.254902%,86.27451%);fill-opacity:1;" d="M 27.90625 11.921875 L 28.023438 12.148438 L 28.132812 12.074219 L 28.132812 11.921875 Z M 21.777344 16.1875 L 21.546875 16.1875 L 21.546875 16.65625 L 21.894531 16.417969 Z M 21.777344 14.90625 L 21.65625 14.679688 L 21.546875 14.757812 L 21.546875 14.90625 Z M 26.457031 11.578125 L 26.574219 11.808594 L 26.894531 11.582031 L 26.578125 11.351562 Z M 21.777344 8.234375 L 21.546875 8.234375 L 21.546875 8.382812 L 21.65625 8.460938 Z M 21.777344 6.988281 L 21.894531 6.761719 L 21.546875 6.515625 L 21.546875 6.988281 Z M 27.90625 11.289062 L 28.132812 11.289062 L 28.132812 11.140625 L 28.023438 11.0625 Z M 27.789062 11.691406 L 21.660156 15.957031 L 21.894531 16.417969 L 28.023438 12.148438 Z M 22.003906 16.1875 L 22.003906 14.90625 L 21.546875 14.90625 L 21.546875 16.1875 Z M 21.894531 15.136719 L 26.574219 11.808594 L 26.339844 11.351562 L 21.65625 14.679688 Z M 26.578125 11.351562 L 21.894531 8.007812 L 21.65625 8.460938 L 26.335938 11.808594 Z M 22.003906 8.234375 L 22.003906 6.988281 L 21.546875 6.988281 L 21.546875 8.234375 Z M 21.65625 7.21875 L 27.789062 11.519531 L 28.023438 11.0625 L 21.894531 6.761719 Z M 27.675781 11.289062 L 27.675781 11.921875 L 28.132812 11.921875 L 28.132812 11.289062 Z M 27.675781 11.289062 "/>
<path style=" stroke:none;fill-rule:nonzero;fill:rgb(100%,100%,100%);fill-opacity:1;" d="M 15.34375 6.355469 L 16.640625 6.355469 L 23.113281 24.535156 L 21.488281 24.535156 L 19.46875 18.851562 L 12.46875 18.851562 L 10.472656 24.535156 L 8.828125 24.535156 Z M 19.117188 17.441406 L 15.980469 8.457031 L 12.800781 17.441406 Z M 19.117188 17.441406 "/>
<path style=" stroke:none;fill-rule:nonzero;fill:rgb(100%,100%,100%);fill-opacity:1;" d="M 15.34375 6.355469 L 15.34375 6.089844 L 15.191406 6.089844 L 15.132812 6.253906 Z M 16.640625 6.355469 L 16.851562 6.253906 L 16.792969 6.089844 L 16.640625 6.089844 Z M 23.113281 24.535156 L 23.113281 24.800781 L 23.453125 24.800781 L 23.324219 24.429688 Z M 21.488281 24.535156 L 21.277344 24.636719 L 21.335938 24.800781 L 21.488281 24.800781 Z M 19.46875 18.851562 L 19.679688 18.75 L 19.621094 18.582031 L 19.46875 18.582031 Z M 12.46875 18.851562 L 12.46875 18.582031 L 12.316406 18.582031 L 12.257812 18.75 Z M 10.472656 24.535156 L 10.472656 24.800781 L 10.625 24.800781 L 10.683594 24.632812 Z M 8.828125 24.535156 L 8.617188 24.429688 L 8.484375 24.800781 L 8.828125 24.800781 Z M 19.117188 17.441406 L 19.117188 17.707031 L 19.457031 17.707031 L 19.332031 17.339844 Z M 15.980469 8.457031 L 16.191406 8.355469 L 15.984375 7.753906 L 15.769531 8.355469 Z M 12.800781 17.441406 L 12.589844 17.339844 L 12.457031 17.707031 L 12.800781 17.707031 Z M 15.34375 6.625 L 16.640625 6.625 L 16.640625 6.089844 L 15.34375 6.089844 Z M 16.429688 6.460938 L 22.902344 24.636719 L 23.324219 24.429688 L 16.851562 6.253906 Z M 23.113281 24.265625 L 21.488281 24.265625 L 21.488281 24.800781 L 23.113281 24.800781 Z M 21.699219 24.429688 L 19.679688 18.75 L 19.257812 18.953125 L 21.277344 24.636719 Z M 19.46875 18.582031 L 12.46875 18.582031 L 12.46875 19.117188 L 19.46875 19.117188 Z M 12.257812 18.75 L 10.261719 24.433594 L 10.683594 24.632812 L 12.679688 18.953125 Z M 10.472656 24.265625 L 8.828125 24.265625 L 8.828125 24.800781 L 10.472656 24.800781 Z M 9.039062 24.636719 L 15.554688 6.460938 L 15.132812 6.253906 L 8.617188 24.429688 Z M 19.332031 17.339844 L 16.191406 8.355469 L 15.769531 8.558594 L 18.90625 17.542969 Z M 15.769531 8.355469 L 12.589844 17.339844 L 13.011719 17.542969 L 16.191406 8.558594 Z M 12.800781 17.707031 L 19.117188 17.707031 L 19.117188 17.175781 L 12.800781 17.175781 Z M 12.800781 17.707031 "/>
</g>
</svg>
